<svg version="1.0" xmlns="http://www.w3.org/2000/svg" width="1900" height="1356" viewBox="0 0 1425 1017"><path d="M685 148.9V264H33v430l44.8.2c24.6.2 34 .4 20.9.5L75 695l1.9 3.8c3.5 6.8 9.7 11.2 20.1 14.1 4.8 1.3 28.2 1.5 193.5 1.8 103.4.2 234.2.4 290.7.6l102.7.2.4-10.5c.1-5.8.4 41.4.5 104.7L685 925l9-6.3c26.4-18.2 32.9-22.5 31.9-20.9-2.5 4 3.1 15.4 9.1 18.5 7.3 3.8 17.2.5 36.2-12.1 11.5-7.6 511.8-351.9 528.1-363.4 14.9-10.6 21.4-16.4 24.7-22.1 4.9-8.5 3.9-17.2-2.9-24.9-1.7-2-3.1-3.8-3.1-4.2 0-.3 3.2-2.7 7-5.2 3.9-2.6 7-5 7-5.3-.1-.6-644.3-444.2-646.2-444.9-.4-.2-.8 51.4-.8 114.7z"/></svg>