<?xml version="1.0" standalone="no"?>
<!DOCTYPE svg PUBLIC "-//W3C//DTD SVG 20010904//EN"
 "http://www.w3.org/TR/2001/REC-SVG-20010904/DTD/svg10.dtd">
<svg version="1.0" xmlns="http://www.w3.org/2000/svg" width="1425.000000pt" height="1017.000000pt" viewBox="0 0 1425.000000 1017.000000" preserveAspectRatio="xMidYMid meet">

<g transform="translate(0.000000,1017.000000) scale(0.100000,-0.100000)" fill="#000000" stroke="none">
<path d="M6850 8681 l0 -1151 -3260 0 -3260 0 0 -2150 0 -2150 448 -2 c246 -2
340 -4 209 -5 l-237 -3 19 -38 c35 -68 97 -112 201 -141 48 -13 282 -15 1935
-18 1034 -2 2342 -4 2907 -6 l1027 -2 4 105 c1 58 4 -414 5 -1047 l2 -1153 90
63 c264 182 329 225 319 209 -25 -40 31 -154 91 -185 73 -38 172 -5 362 121
115 76 5118 3519 5281 3634 149 106 214 164 247 221 49 85 39 172 -29 249 -17
20 -31 38 -31 42 0 3 32 27 70 52 39 26 70 50 70 53 -1 6 -6443 4442 -6462
4449 -4 2 -8 -514 -8 -1147z"></path>
</g>
</svg>
