<svg viewBox="0 0 2047 1765" xmlns="http://www.w3.org/2000/svg" xml:space="preserve" style="fill-rule:evenodd;clip-rule:evenodd;stroke-linejoin:round;stroke-miterlimit:2"><g transform="translate(-55.784 -709.157)"><g id="ESCAPE"><path d="M638.426 2271.14c19.632 0 46.123-4.43 64.143 4.55 12.828 6.82 23.185 24.91 38.464 26.82 11.746 1.45 22.706-10.52 21.145-22.51-4.019-28.76-43.343-39.46-63.886-50.39-28.915-15.39-52.455-41.6-70.471-69.24-28.864-44.29-46.593-91.94-63.715-141.78-33.114-96.39-58.639-197.7-48.962-301.3 1.3-13.29 2.814-30.41 9.014-43.04 29.874-60.84 95.397-32.28 128.666 8 43.702 53.19 70.766 120.32 92.057 185.69 13.278 41.72 25.986 79.75 26.106 124.06-21.894 0-55.59 6.56-75.581-2.67-8.919-3.74-11.412-16.59-17.786-24.24-4.187-5.02-11.8-5.38-17.856-7.93-10.682-4.5-21.851 1.21-24.002 13.17-2.596 14.4 8.283 28.38 15.492 39.39 26.906 35.45 75.27 41.54 106.734 71.71 42.518 40.77 57.24 102.74 70.022 158.69 5.7 24.95 13.547 49.55 15.287 75.33 1.467 22.15 1.664 44.85-.013 66.46-4.682 60.32-55.829 107.43-110.782 64.6-49.822-38.82-85.524-112.31-94.076-175.37Zm436.174-39.88c0 63.66 4.27 132.1-24.91 190.53-25.14 49.54-81.02 51.71-113.946 8.86-10.815-13.29-19.585-30.14-27.919-45.57-34.924-69.63-50.891-161.04-61.829-238-9.532-66.46-18.623-135.83-19.419-203.82-.91-80.63-6.799-166.47 19.846-243.69 17.058-48.74 57.125-77.41 107.221-52.17 43.98 22.46 65.356 81.89 77.856 127.49 24.66 93.05 38.82 177.97 38.82 274.71h-76.972c-8.552-25.71-12.828-62.03-29.933-83.52-18.824-23.61-38.486-1.78-41.847 21.49-7.278 47.7 15.437 220.36 21.364 256.98 2.78 17.73 24.635 72.9 48.004 50.38 13.794-13.29 13.854-45.49 15.244-63.67h68.42Zm-953.59-589.29h252.293c23.994 63.48 43.96 125.8 65.34 190.52 9.048 37.04 25.326 75.67 33.012 115.2H343.37c6.769 19.6 30.998 84.63 43.673 90.38 18.957 8.59 93.275.33 104.586 7.22 16.827 10.62 20.539 35.34 26.47 53.05 15.197 45.38 40.953 93.31 43.356 141.78h-98.352c8.552 18.37 19.931 55.66 38.486 63.79 16.959 7.14 88.975-.37 100.242 7.23 10.168 7.12 52.002 112.01 53.7 150.52H544.35c-15.484 0-36.702 4.43-49.646-7.1-18.772-15.05-25.306-47.14-34.941-68.22-22.317-47.52-206.603-429.21-270.335-576-14.013-33.96-68.418-141.24-68.418-168.37Zm1064.77 0h128.28c0 130.95-7.06 507.6-9.75 569.86-5.71 78.62-.94 172.27-7.35 249.83-13.25 0-41.28 4.43-52.25-4.43-5.37-12.86 1.26-57.11-3.34-75.32h-72.7l-8.55 79.75h-55.59c0-54.14 7.08-105.78 12.1-159.5 12.33-131.99 26.38-262.81 42.27-394.34 10.56-82.55 12.78-164.72 26.88-265.85Zm38.48 361.02c-9.52 36.88-25.18 175.51-25.66 199.38h34.21c0-46.14-.8-180.26-8.55-199.38Zm115.46 458.67c4.41-49.54 55.02-358.89 72.35-465.23 11.25-69.04 23.61-139.02 32.74-208.25 5.36-40.7 6.84-85.06 20.98-123.97 10.16-27.97 38.22-22.24 62.08-22.24 47.04 0 120.1-5.19 138.4 53.94 13.27 42.88 11.27 83.74 7.72 127.72-8.17 87.43-29.28 169.65-57.19 252.55-18.07 53.68-34.47 108.04-66.57 155.08-14.08 20.61-31.04 42.37-55.54 48.51-15.9 3.97-41.42-5.32-54.1 7.33-11.2 11.17-16.7 35.57-19.63 50.5-3.21 16.38-22.28 99.41-27.43 124.06h-53.81Zm166.77-517.33c-3.76 19.84-21.38 111.47-21.38 137.35 12.07 0 29.58 3.06 40.03-4.43 10.35-7.66 26.87-77.27 17.22-113.92-4.49-17.04-18.77-20.47-35.87-19Zm34.21 517.33c8.34-68.35 34.21-129.47 54.1-194.95 35.32-118.34 74.85-236.25 111.32-354.4 5.45-19.82 12.32-37.69 18.35-57.66 14.87-48.74 30.64-97.26 45.09-146.22 5.63-18.57 11.64-50.81 28.88-61.91 17.48-11.25 51.65-4.55 71.52-4.55h171.05c-.72 31.83-14.35 59.77-26.3 88.61-18.67 45.04-36.05 88.81-56.33 132.93-10.22 22.8-21.51 65.4-43.05 79.75-27.57 12.3-126.61 3.07-137.26 14.7-11.42 12.45-26.19 69.66-27.84 82.78h106.9c-7.05 48.74-68.4 181.68-79.74 192.28-24.71 23.09-73.35-7.25-100.12 10.6-9.51 6.54-20.05 51.96-21.12 62.97h106.91c-5.74 39.87-53.89 146.21-68.99 152.4-14.47 6.32-35.35 2.67-50.74 2.67H1540.7Z" style="fill:#342300;stroke:#000;stroke-opacity:0;stroke-width:20.83px" id="Sombra"/><path d="M649.176 2230.4c19.129 0 44.942-4.16 62.5 4.28 12.5 6.41 22.592 23.43 37.479 25.22 11.446 1.37 22.125-9.89 20.605-21.16-3.917-27.05-42.234-37.12-62.25-47.4-28.175-14.47-51.113-39.11-68.667-65.1-28.125-41.65-45.4-86.47-62.083-133.34-32.267-90.64-57.138-185.91-47.709-283.33 1.267-12.5 2.742-28.61 8.784-40.48 29.108-57.21 92.954-30.35 125.37 7.52 42.584 50.02 68.955 113.15 89.7 174.63 12.938 39.23 25.321 75 25.438 116.66-21.333 0-54.167 6.17-73.646-2.51-8.691-3.51-11.12-15.6-17.331-22.79-4.08-4.73-11.497-5.06-17.398-7.46-10.409-4.23-21.292 1.14-23.388 12.38-2.529 13.54 8.071 26.69 15.096 37.05 26.217 33.33 73.342 39.06 104 67.43 41.429 38.34 55.775 96.62 68.229 149.24 5.554 23.46 13.2 46.59 14.896 70.83 1.429 20.83 1.621 42.17-.012 62.5-4.563 56.72-54.4 101.03-107.946 60.75-48.546-36.51-83.333-105.61-91.667-164.92Zm425.004-37.5c0 59.87 4.16 124.22-24.28 179.17-24.49 46.59-78.936 48.63-111.02 8.33-10.537-12.5-19.083-28.34-27.204-42.85-34.029-65.48-49.587-151.44-60.246-223.81-9.287-62.5-18.145-127.73-18.92-191.67-.888-75.83-6.625-156.55 19.337-229.17 16.621-45.83 55.663-72.79 104.475-49.06 42.854 21.12 63.688 77.01 75.858 119.9 24.03 87.5 37.83 167.36 37.83 258.33h-75c-8.334-24.18-12.5-58.33-29.167-78.55-18.342-22.19-37.5-1.67-40.775 20.22-7.092 44.85 15.042 207.22 20.817 241.66 2.708 16.67 24.004 68.55 46.775 47.37 13.44-12.5 13.5-42.77 14.85-59.87h66.67Zm-929.17-554.16h245.833c23.379 59.69 42.833 118.3 63.667 179.16 8.816 34.83 24.677 71.16 32.166 108.34h-125c6.596 18.43 30.204 79.58 42.554 84.98 18.472 8.08 90.887.32 101.909 6.8 16.396 9.98 20.012 33.23 25.791 49.88 14.809 42.68 39.905 87.75 42.246 133.34h-95.833c8.333 17.26 19.421 52.33 37.5 59.98 16.525 6.71 86.697-.35 97.675 6.8 9.908 6.69 50.671 105.33 52.325 141.55H557.51c-15.088 0-35.763 4.17-48.376-6.68-18.291-14.15-24.658-44.33-34.045-64.15-21.746-44.69-201.313-403.63-263.413-541.67-13.654-31.94-66.666-132.82-66.666-158.33Zm1037.5 0h125c0 123.14-6.88 477.34-9.5 535.88-5.56 73.94-.92 162.01-7.17 234.95-12.9 0-40.22 4.17-50.91-4.17-5.23-12.09 1.23-53.7-3.25-70.83h-70.84l-8.33 75h-54.17c0-50.91 6.91-99.48 11.79-150 12.02-124.12 25.71-247.14 41.19-370.83 10.29-77.63 12.46-154.91 26.19-250Zm37.5 339.5c-9.28 34.68-24.54 165.04-25 187.5h33.33c0-43.4-.78-169.52-8.33-187.5Zm112.5 431.33c4.3-46.59 53.62-337.5 70.5-437.5 10.96-64.93 23.01-130.73 31.89-195.83 5.23-38.28 6.68-80 20.45-116.59 9.9-26.3 37.25-20.91 60.49-20.91 45.84 0 117.03-4.89 134.86 50.72 12.93 40.32 10.98 78.75 7.52 120.11-7.96 82.22-28.53 159.53-55.73 237.5-17.61 50.47-33.58 101.59-64.86 145.83-13.72 19.38-30.24 39.85-54.12 45.61-15.49 3.75-40.36-4.99-52.71 6.9-10.92 10.51-16.27 33.45-19.13 47.49-3.13 15.41-21.71 93.49-26.73 116.67h-52.43Zm162.5-486.5c-3.66 18.66-20.83 104.83-20.83 129.17 11.76 0 28.82 2.87 39-4.17 10.09-7.21 26.19-72.66 16.78-107.13-4.37-16.03-18.28-19.25-34.95-17.87Zm33.33 486.5c8.13-64.28 33.34-121.76 52.72-183.33 34.42-111.29 72.94-222.17 108.47-333.28 5.31-18.64 12-35.45 17.87-54.22 14.5-45.84 29.86-91.47 43.94-137.5 5.49-17.47 11.34-47.79 28.15-58.22 17.03-10.59 50.32-4.28 69.69-4.28h166.66c-.7 29.93-13.98 56.21-25.62 83.33-18.19 42.35-35.13 83.51-54.89 125-9.96 21.44-20.96 61.5-41.95 75-26.87 11.56-123.37 2.89-133.75 13.82-11.12 11.71-25.52 65.51-27.12 77.85h104.17c-6.87 45.83-66.65 170.85-77.71 180.82-24.07 21.7-71.47-6.82-97.55 9.96-9.27 6.15-19.54 48.86-20.58 59.22h104.17c-5.59 37.5-52.51 137.5-67.22 143.32-14.11 5.94-34.45 2.51-49.45 2.51h-100Z" style="fill:#dfad7a;stroke:#000;stroke-opacity:0;stroke-width:20.83px" id="Escape"/></g><g id="Fruity"><path d="M.127-.7h.636a.027.027 0 0 1 .027.027v.152a.027.027 0 0 1-.027.027H.37v.064h.328a.027.027 0 0 1 .027.027v.151a.027.027 0 0 1-.027.027H.37v.198A.027.027 0 0 1 .343 0H.127A.027.027 0 0 1 .1-.027v-.646A.027.027 0 0 1 .127-.7Z" style="fill-rule:nonzero" transform="matrix(135.06374 -179.86119 279.87492 210.16734 542.433 1489.637)"/><path d="M.822-.031a.03.03 0 0 1 .002.011.018.018 0 0 1-.006.013A.021.021 0 0 1 .802 0H.575C.555 0 .541-.008.533-.025L.445-.223H.361v.196A.027.027 0 0 1 .334 0H.118a.027.027 0 0 1-.027-.027v-.646A.027.027 0 0 1 .118-.7h.389c.091 0 .164.022.217.065.053.043.08.102.08.177 0 .091-.035.156-.105.197l.123.23ZM.361-.514v.106h.125A.04.04 0 0 0 .52-.423a.052.052 0 0 0 .012-.036.071.071 0 0 0-.011-.039.043.043 0 0 0-.035-.016H.361Z" style="fill-rule:nonzero" transform="matrix(188.5469 -122.646 190.84479 293.39064 643.62 1319.749)"/><path d="M.692-.071a.445.445 0 0 1-.267.072.44.44 0 0 1-.266-.072C.093-.119.06-.194.06-.296v-.377c0-.008.003-.014.008-.019A.027.027 0 0 1 .087-.7h.209c.007 0 .014.003.019.008a.026.026 0 0 1 .008.019v.391c0 .026.009.047.027.061a.117.117 0 0 0 .075.022A.117.117 0 0 0 .5-.221a.073.073 0 0 0 .027-.061v-.391c0-.008.003-.014.008-.019A.027.027 0 0 1 .554-.7h.209c.007 0 .014.003.019.008a.026.026 0 0 1 .008.019v.377c0 .102-.033.177-.098.225Z" style="fill-rule:nonzero" transform="matrix(217.89501 -55.80415 86.83406 339.05777 797.663 1197.403)"/><path d="M.742-.495H.561v.29h.181a.027.027 0 0 1 .027.027v.151A.027.027 0 0 1 .742 0H.108a.027.027 0 0 1-.027-.027v-.151a.027.027 0 0 1 .027-.027h.183v-.29H.108a.027.027 0 0 1-.027-.027v-.151A.027.027 0 0 1 .108-.7h.634a.027.027 0 0 1 .027.027v.151a.027.027 0 0 1-.027.027Z" style="fill-rule:nonzero" transform="matrix(203.83356 95.09927 -147.98115 317.17813 1180.343 1132.219)"/><path d="M.08-.7h.69a.027.027 0 0 1 .027.027v.161a.027.027 0 0 1-.027.027H.555v.458A.027.027 0 0 1 .528 0H.322a.027.027 0 0 1-.027-.027v-.458H.08a.027.027 0 0 1-.027-.027v-.161A.027.027 0 0 1 .08-.7Z" style="fill-rule:nonzero" transform="matrix(160.91502 157.15743 -244.5469 250.39395 1361.252 1196.772)"/><path d="M.582-.7h.209c.006 0 .011.002.016.006.004.005.006.009.006.014a.028.028 0 0 1-.003.013L.558-.25v.223A.027.027 0 0 1 .531 0H.318a.027.027 0 0 1-.027-.027V-.25L.04-.667A.028.028 0 0 1 .037-.68c0-.005.002-.009.006-.014A.025.025 0 0 1 .059-.7H.27c.019 0 .032.008.041.023l.113.198.116-.196A.046.046 0 0 1 .582-.7Z" style="fill-rule:nonzero" transform="matrix(99.94948 201.50015 -313.54647 155.52789 1511.304 1318.037)"/><path d="M.127-.7h.636a.027.027 0 0 1 .027.027v.152a.027.027 0 0 1-.027.027H.37v.064h.328a.027.027 0 0 1 .027.027v.151a.027.027 0 0 1-.027.027H.37v.198A.027.027 0 0 1 .343 0H.127A.027.027 0 0 1 .1-.027v-.646A.027.027 0 0 1 .127-.7Z" style="fill:#ff1a00;fill-rule:nonzero" transform="matrix(135.06374 -179.86119 279.87492 210.16734 542.19 1474.639)"/><path d="M.822-.031a.03.03 0 0 1 .002.011.018.018 0 0 1-.006.013A.021.021 0 0 1 .802 0H.575C.555 0 .541-.008.533-.025L.445-.223H.361v.196A.027.027 0 0 1 .334 0H.118a.027.027 0 0 1-.027-.027v-.646A.027.027 0 0 1 .118-.7h.389c.091 0 .164.022.217.065.053.043.08.102.08.177 0 .091-.035.156-.105.197l.123.23ZM.361-.514v.106h.125A.04.04 0 0 0 .52-.423a.052.052 0 0 0 .012-.036.071.071 0 0 0-.011-.039.043.043 0 0 0-.035-.016H.361Z" style="fill:#ff1a00;fill-rule:nonzero" transform="matrix(188.5469 -122.646 190.84479 293.39064 643.378 1304.75)"/><path d="M.692-.071a.445.445 0 0 1-.267.072.44.44 0 0 1-.266-.072C.093-.119.06-.194.06-.296v-.377c0-.008.003-.014.008-.019A.027.027 0 0 1 .087-.7h.209c.007 0 .014.003.019.008a.026.026 0 0 1 .008.019v.391c0 .026.009.047.027.061a.117.117 0 0 0 .075.022A.117.117 0 0 0 .5-.221a.073.073 0 0 0 .027-.061v-.391c0-.008.003-.014.008-.019A.027.027 0 0 1 .554-.7h.209c.007 0 .014.003.019.008a.026.026 0 0 1 .008.019v.377c0 .102-.033.177-.098.225Z" style="fill:#ff1a00;fill-rule:nonzero" transform="matrix(217.89501 -55.80415 86.83406 339.05777 797.421 1182.405)"/><path d="M.742-.495H.561v.29h.181a.027.027 0 0 1 .027.027v.151A.027.027 0 0 1 .742 0H.108a.027.027 0 0 1-.027-.027v-.151a.027.027 0 0 1 .027-.027h.183v-.29H.108a.027.027 0 0 1-.027-.027v-.151A.027.027 0 0 1 .108-.7h.634a.027.027 0 0 1 .027.027v.151a.027.027 0 0 1-.027.027Z" style="fill:#ff1a00;fill-rule:nonzero" transform="matrix(203.83356 95.09927 -147.98115 317.17813 1180.101 1117.22)"/><path d="M.08-.7h.69a.027.027 0 0 1 .027.027v.161a.027.027 0 0 1-.027.027H.555v.458A.027.027 0 0 1 .528 0H.322a.027.027 0 0 1-.027-.027v-.458H.08a.027.027 0 0 1-.027-.027v-.161A.027.027 0 0 1 .08-.7Z" style="fill:#ff1a00;fill-rule:nonzero" transform="matrix(160.91502 157.15743 -244.5469 250.39395 1361.01 1181.774)"/><path d="M.582-.7h.209c.006 0 .011.002.016.006.004.005.006.009.006.014a.028.028 0 0 1-.003.013L.558-.25v.223A.027.027 0 0 1 .531 0H.318a.027.027 0 0 1-.027-.027V-.25L.04-.667A.028.028 0 0 1 .037-.68c0-.005.002-.009.006-.014A.025.025 0 0 1 .059-.7H.27c.019 0 .032.008.041.023l.113.198.116-.196A.046.046 0 0 1 .582-.7Z" style="fill:#ff1a00;fill-rule:nonzero" transform="matrix(99.94948 201.50015 -313.54647 155.52789 1511.062 1303.039)"/></g><g id="PALO-CESTA" transform="translate(14.77 -117.622)"><path d="m1083.76 1397.65-4.89-534.575" style="fill:none;stroke:#000;stroke-width:45px;stroke-linecap:square;stroke-miterlimit:1" transform="translate(-14.756 15.06)" id="Palo-cesta"/><path d="m1083.76 1397.65-4.89-534.575" style="fill:none;stroke:#dfad7a;stroke-width:50px;stroke-linecap:square;stroke-miterlimit:1" transform="translate(-14.756 -.94)" id="Palo-cesta1"/></g><g id="UNION-CESTA" transform="translate(15.885 -126.211)"><ellipse cx="1119.63" cy="1516.04" rx="39.465" ry="46.641" style="fill:none;stroke:#030200;stroke-width:38.35px;stroke-linecap:round;stroke-miterlimit:1" id="Unión-cesta" transform="matrix(1.26694 0 0 1.07203 -349.512 -74.239)"/><ellipse cx="1119.63" cy="1516.04" rx="39.465" ry="46.641" style="fill:none;stroke:#dfad7a;stroke-width:38.35px;stroke-linecap:round;stroke-miterlimit:1" id="Unión-cesta1" transform="matrix(1.26694 0 0 1.07203 -349.512 -82.239)"/></g><path d="m138.736 415.664.08 99.934 99.866.413-.109-100.67 99.952-.606.128 101.196 99.97.088.008-100.099 99.9-.009.098 100.083 99.892-.014V415.731l100.327.241-.267 99.988 100.097.035-.23-99.983 100.095.017.301 99.881 99.836.443.39-100.536 99.71-.122-.16 100.199 100.09-.145-.05-99.947 100.13.014-.51 99.933 100.39.047.05-99.867 99.88.049v100.014l100.11-.177.06-99.926 99.87-.283.09 100.488 99.94-.219.03-99.989 99.83-.169.72 100.037 99.14.067.37-99.893" style="fill:none;stroke:#000;stroke-width:68.42px;stroke-linecap:square;stroke-miterlimit:1" transform="matrix(-1.03245 0 0 -.6871 2203.14 1891.25)" id="mantel"/><path d="m138.736 415.664.08 99.934 99.866.413-.109-100.67 99.952-.606.128 101.196 99.97.088.008-100.099 99.9-.009.098 100.083 99.892-.014V415.731l100.327.241-.267 99.988 100.097.035-.23-99.983 100.095.017.301 99.881 99.836.443.39-100.536 99.71-.122-.16 100.199 100.09-.145-.05-99.947 100.13.014-.51 99.933 100.39.047.05-99.867 99.88.049v100.014l100.11-.177.06-99.926 99.87-.283.09 100.488 99.94-.219.03-99.989 99.83-.169.72 100.037 99.14.067.37-99.893" style="fill:none;stroke:#dbc9b3;stroke-width:68.42px;stroke-linecap:square;stroke-miterlimit:1" transform="matrix(-1.03245 0 0 -.6871 2203.14 1885.25)" id="mantel1"/></g></svg>