<svg viewBox="0 0 1295 1661" xmlns="http://www.w3.org/2000/svg" xml:space="preserve" style="fill-rule:evenodd;clip-rule:evenodd;stroke-linejoin:round;stroke-miterlimit:2"><g transform="translate(-406.276 -1686.45)"><path d="M1300.53 3335.21h-.01s30.45-94.39-59.88-227.35c-2.03 0 22.33-9.13 22.33-9.13s89.32 98.45 66.99 238.51c.27 4.56 1.65 8.6 4.89 11.81 0 0 71.52 6.16 71.19 23.65-.68 36.58-106.49 19.89-106.49 19.89.95.2-21.5-2.37.98-57.38Z" style="fill:#040000" transform="matrix(-1.00656 0 0 1 2072.86 -49.655)" id="Pierna"/><path d="M1300.53 3335.21h-.01s30.45-94.39-59.88-227.35c-2.03 0 22.33-9.13 22.33-9.13s89.32 98.45 66.99 238.51c.27 4.56 1.65 8.6 4.89 11.81 0 0 71.52 6.16 71.19 23.65-.68 36.58-106.49 19.89-106.49 19.89.95.2-21.5-2.37.98-57.38Z" style="fill:#040000" transform="matrix(1.00656 0 0 1 43.758 -49.688)" id="Pierna1"/><path id="Brazo" d="M1645.98 2828.84c-1.23-15.87-15.33-125.32-149.74-172.51 1.52-1.52-2.28-28.93-2.28-28.93 7.78-4.79 166.14 44.74 184.34 200.37 13.21 5.81 22.45 19.01 22.45 34.36 0 20.69-16.8 37.5-37.5 37.5s-37.5-16.81-37.5-37.5c0-14.47 8.22-27.04 20.23-33.29Z"/><path d="M1645.98 2828.84c-1.23-15.87-15.33-125.32-149.74-172.51 1.52-1.52-2.28-28.93-2.28-28.93 7.78-4.79 166.14 44.74 184.34 200.37 13.21 5.81 22.45 19.01 22.45 34.36 0 20.69-16.8 37.5-37.5 37.5s-37.5-16.81-37.5-37.5c0-14.47 8.22-27.04 20.23-33.29Z" transform="matrix(-1 0 0 1 2107.03 .013)" id="Brazo1"/><path id="Pera" d="M1499.91 2694.91c.03 2.1.04 4.21.04 6.32 0 248.37-201.64 450-450 450-248.361 0-449.999-201.63-449.999-450 0-62.97 12.961-122.93 36.359-177.37 16.634-49.98 38.162-99.97 63.373-149.96 44.274-106.23 86.957-212.46 99.758-318.7-.022-1.36-.033-2.73-.033-4.1 0-137.98 112.021-250 250.002-250 136.85 0 248.16 110.19 249.97 246.61 5.25 115.44 111.84 299.79 168.25 485.87 19.19 47.7 30.43 99.42 32.1 153.54.25 2.6.47 5.2.68 7.79h-.5Z" style="fill:#d0ee6a"/><g id="Rabito-Pera"><path d="m1020.75 1877.85 38.72-147.21 68.12-44.19 21.18 28.54-54.94 32.31-36.26 129.9-36.82.65Z" style="fill:#796423" transform="translate(12)"/><path d="m1010.67 1875.09-4.75 6.5c18.61 8.43 34.89 13.15 43.29 13.07 16.42.59 29.45-2.63 38.89-7.27l-2.21-7.68c-11.23 3.88-23.4 6.19-37.2 5.78-12.8-.7-25.51-3.41-38.02-10.4Z" style="fill:#170808" transform="translate(0 -2)"/></g><g id="Ojos"><path d="M1220.15 2530.19c-5.89 0 6.99-.27 19.63-.51 10.14-.2 20.13-.37 20.13-.37 31.97-.11 63.93-8.43 95.89-20.33-8.24 12.36-17.16 24.72-34.26 37.09-12.7 8.35-26.86 13.04-40.86 18.14 0 0-49.93-34.02-60.53-34.02Z" transform="matrix(-1 0 0 1 2051.48 1)"/><path d="M1220.15 2530.19c-5.89 0 6.99-.27 19.63-.51 10.14-.2 20.13-.37 20.13-.37 31.97-.11 63.93-8.43 95.89-20.33-8.24 12.36-17.16 24.72-34.26 37.09-12.7 8.35-26.86 13.04-40.86 18.14 0 0-49.93-34.02-60.53-34.02Z" transform="translate(0 1)"/><ellipse cx="838.623" cy="2610.95" rx="86.168" ry="80.1" style="fill:#796423" transform="matrix(.92842 0 0 .99876 53.86 3.146)"/><ellipse cx="838.623" cy="2610.95" rx="86.168" ry="80.1" style="fill:#796423" transform="matrix(.92842 0 0 .99876 437.976 3.196)"/></g></g></svg>