<?xml version="1.0" encoding="UTF-8" standalone="no"?>
<!DOCTYPE svg PUBLIC "-//W3C//DTD SVG 1.1//EN" "http://www.w3.org/Graphics/SVG/1.1/DTD/svg11.dtd">
<svg width="100%" height="100%" viewBox="0 0 1295 1661" version="1.1" xmlns="http://www.w3.org/2000/svg" xmlns:xlink="http://www.w3.org/1999/xlink" xml:space="preserve" xmlns:serif="http://www.serif.com/" style="fill-rule: evenodd; clip-rule: evenodd; stroke-linejoin: round; stroke-miterlimit: 2">
    <g transform="matrix(1,0,0,1,-406.276,-1686.45)">
        <g id="Pierna" transform="matrix(-1.00656,0,0,1,2072.86,-49.6553)">
            <path d="M1300.53,3335.21C1300.53,3335.21 1300.52,3335.21 1300.52,3335.21C1300.52,3335.21 1330.97,3240.82 1240.64,3107.86C1238.61,3107.86 1262.97,3098.73 1262.97,3098.73C1262.97,3098.73 1352.29,3197.18 1329.96,3337.24C1330.23,3341.8 1331.61,3345.84 1334.85,3349.05C1334.85,3349.05 1406.37,3355.21 1406.04,3372.7C1405.36,3409.28 1299.55,3392.59 1299.55,3392.59C1300.5,3392.79 1278.05,3390.22 1300.53,3335.21Z" style="fill: #040000"></path>
        </g>
        <g id="Pierna1" serif:id="Pierna" transform="matrix(1.00656,0,0,1,43.7584,-49.6878)">
            <path d="M1300.53,3335.21C1300.53,3335.21 1300.52,3335.21 1300.52,3335.21C1300.52,3335.21 1330.97,3240.82 1240.64,3107.86C1238.61,3107.86 1262.97,3098.73 1262.97,3098.73C1262.97,3098.73 1352.29,3197.18 1329.96,3337.24C1330.23,3341.8 1331.61,3345.84 1334.85,3349.05C1334.85,3349.05 1406.37,3355.21 1406.04,3372.7C1405.36,3409.28 1299.55,3392.59 1299.55,3392.59C1300.5,3392.79 1278.05,3390.22 1300.53,3335.21Z" style="fill: #040000"></path>
        </g>
        <path id="Brazo" d="M1645.98,2828.84C1644.75,2812.97 1630.65,2703.52 1496.24,2656.33C1497.76,2654.81 1493.96,2627.4 1493.96,2627.4C1501.74,2622.61 1660.1,2672.14 1678.3,2827.77C1691.51,2833.58 1700.75,2846.78 1700.75,2862.13C1700.75,2882.82 1683.95,2899.63 1663.25,2899.63C1642.55,2899.63 1625.75,2882.82 1625.75,2862.13C1625.75,2847.66 1633.97,2835.09 1645.98,2828.84Z"></path>
        <g id="Brazo1" serif:id="Brazo" transform="matrix(-1,0,0,1,2107.03,0.0125012)">
            <path d="M1645.98,2828.84C1644.75,2812.97 1630.65,2703.52 1496.24,2656.33C1497.76,2654.81 1493.96,2627.4 1493.96,2627.4C1501.74,2622.61 1660.1,2672.14 1678.3,2827.77C1691.51,2833.58 1700.75,2846.78 1700.75,2862.13C1700.75,2882.82 1683.95,2899.63 1663.25,2899.63C1642.55,2899.63 1625.75,2882.82 1625.75,2862.13C1625.75,2847.66 1633.97,2835.09 1645.98,2828.84Z"></path>
        </g>
        <path id="Pera" d="M1499.91,2694.91C1499.94,2697.01 1499.95,2699.12 1499.95,2701.23C1499.95,2949.6 1298.31,3151.23 1049.95,3151.23C801.589,3151.23 599.951,2949.6 599.951,2701.23C599.951,2638.26 612.912,2578.3 636.31,2523.86C652.944,2473.88 674.472,2423.89 699.683,2373.9C743.957,2267.67 786.64,2161.44 799.441,2055.2C799.419,2053.84 799.408,2052.47 799.408,2051.1C799.408,1913.12 911.429,1801.1 1049.41,1801.1C1186.26,1801.1 1297.57,1911.29 1299.38,2047.71C1304.63,2163.15 1411.22,2347.5 1467.63,2533.58C1486.82,2581.28 1498.06,2633 1499.73,2687.12C1499.98,2689.72 1500.2,2692.32 1500.41,2694.91L1499.91,2694.91Z" style="fill: #d0ee6a"></path>
        <g id="Rabito-Pera" serif:id="Rabito Pera">
            <g transform="matrix(1,0,0,1,12,0)">
                <path d="M1020.75,1877.85L1059.47,1730.64L1127.59,1686.45L1148.77,1714.99L1093.83,1747.3L1057.57,1877.2L1020.75,1877.85Z" style="fill: #796423"></path>
            </g>
            <g transform="matrix(1,0,0,1,0,-2)">
                <path d="M1010.67,1875.09L1005.92,1881.59C1024.53,1890.02 1040.81,1894.74 1049.21,1894.66C1065.63,1895.25 1078.66,1892.03 1088.1,1887.39L1085.89,1879.71C1074.66,1883.59 1062.49,1885.9 1048.69,1885.49C1035.89,1884.79 1023.18,1882.08 1010.67,1875.09Z" style="fill: #170808"></path>
            </g>
        </g>
        <g id="Ojos">
            <g transform="matrix(-1,0,0,1,2051.48,1)">
                <path d="M1220.15,2530.19C1214.26,2530.19 1227.14,2529.92 1239.78,2529.68C1249.92,2529.48 1259.91,2529.31 1259.91,2529.31C1291.88,2529.2 1323.84,2520.88 1355.8,2508.98C1347.56,2521.34 1338.64,2533.7 1321.54,2546.07C1308.84,2554.42 1294.68,2559.11 1280.68,2564.21C1280.68,2564.21 1230.75,2530.19 1220.15,2530.19Z"></path>
            </g>
            <g transform="matrix(1,0,0,1,0,1)">
                <path d="M1220.15,2530.19C1214.26,2530.19 1227.14,2529.92 1239.78,2529.68C1249.92,2529.48 1259.91,2529.31 1259.91,2529.31C1291.88,2529.2 1323.84,2520.88 1355.8,2508.98C1347.56,2521.34 1338.64,2533.7 1321.54,2546.07C1308.84,2554.42 1294.68,2559.11 1280.68,2564.21C1280.68,2564.21 1230.75,2530.19 1220.15,2530.19Z"></path>
            </g>
            <g transform="matrix(0.928421,0,0,0.998757,53.8596,3.14613)">
                <ellipse cx="838.623" cy="2610.95" rx="86.168" ry="80.1" style="fill: #796423"></ellipse>
            </g>
            <g transform="matrix(0.928421,0,0,0.998757,437.976,3.19595)">
                <ellipse cx="838.623" cy="2610.95" rx="86.168" ry="80.1" style="fill: #796423"></ellipse>
            </g>
        </g>
    </g>
</svg>
