<?xml version="1.0" encoding="UTF-8" standalone="no"?>
<!DOCTYPE svg PUBLIC "-//W3C//DTD SVG 1.1//EN" "http://www.w3.org/Graphics/SVG/1.1/DTD/svg11.dtd">
<svg width="100%" height="100%" viewBox="0 0 2047 1765" version="1.1" xmlns="http://www.w3.org/2000/svg" xmlns:xlink="http://www.w3.org/1999/xlink" xml:space="preserve" xmlns:serif="http://www.serif.com/" style="fill-rule:evenodd;clip-rule:evenodd;stroke-linejoin:round;stroke-miterlimit:2;">
    <g transform="matrix(1,0,0,1,-55.7842,-709.157)">
        <g>
            <g id="ESCAPE">
                <g id="Sombra">
                    <path d="M638.426,2271.14C658.058,2271.14 684.549,2266.71 702.569,2275.69C715.397,2282.51 725.754,2300.6 741.033,2302.51C752.779,2303.96 763.739,2291.99 762.178,2280C758.159,2251.24 718.835,2240.54 698.292,2229.61C669.377,2214.22 645.837,2188.01 627.821,2160.37C598.957,2116.08 581.228,2068.43 564.106,2018.59C530.992,1922.2 505.467,1820.89 515.144,1717.29C516.444,1704 517.958,1686.88 524.158,1674.25C554.032,1613.41 619.555,1641.97 652.824,1682.25C696.526,1735.44 723.59,1802.57 744.881,1867.94C758.159,1909.66 770.867,1947.69 770.987,1992C749.093,1992 715.397,1998.56 695.406,1989.33C686.487,1985.59 683.994,1972.74 677.62,1965.09C673.433,1960.07 665.82,1959.71 659.764,1957.16C649.082,1952.66 637.913,1958.37 635.762,1970.33C633.166,1984.73 644.045,1998.71 651.254,2009.72C678.16,2045.17 726.524,2051.26 757.988,2081.43C800.506,2122.2 815.228,2184.17 828.01,2240.12C833.71,2265.07 841.557,2289.67 843.297,2315.45C844.764,2337.6 844.961,2360.3 843.284,2381.91C838.602,2442.23 787.455,2489.34 732.502,2446.51C682.68,2407.69 646.978,2334.2 638.426,2271.14ZM1074.6,2231.26C1074.6,2294.92 1078.87,2363.36 1049.69,2421.79C1024.55,2471.33 968.67,2473.5 935.744,2430.65C924.929,2417.36 916.159,2400.51 907.825,2385.08C872.901,2315.45 856.934,2224.04 845.996,2147.08C836.464,2080.62 827.373,2011.25 826.577,1943.26C825.667,1862.63 819.778,1776.79 846.423,1699.57C863.481,1650.83 903.548,1622.16 953.644,1647.4C997.624,1669.86 1019,1729.29 1031.5,1774.89C1056.16,1867.94 1070.32,1952.86 1070.32,2049.6L993.348,2049.6C984.796,2023.89 980.52,1987.57 963.415,1966.08C944.591,1942.47 924.929,1964.3 921.568,1987.57C914.29,2035.27 937.005,2207.93 942.932,2244.55C945.712,2262.28 967.567,2317.45 990.936,2294.93C1004.73,2281.64 1004.79,2249.44 1006.18,2231.26L1074.6,2231.26ZM121.01,1641.97L373.303,1641.97C397.297,1705.45 417.263,1767.77 438.643,1832.49C447.691,1869.53 463.969,1908.16 471.655,1947.69L343.37,1947.69C350.139,1967.29 374.368,2032.32 387.043,2038.07C406,2046.66 480.318,2038.4 491.629,2045.29C508.456,2055.91 512.168,2080.63 518.099,2098.34C533.296,2143.72 559.052,2191.65 561.455,2240.12L463.103,2240.12C471.655,2258.49 483.034,2295.78 501.589,2303.91C518.548,2311.05 590.564,2303.54 601.831,2311.14C611.999,2318.26 653.833,2423.15 655.531,2461.66L544.35,2461.66C528.866,2461.66 507.648,2466.09 494.704,2454.56C475.932,2439.51 469.398,2407.42 459.763,2386.34C437.446,2338.82 253.16,1957.13 189.428,1810.34C175.415,1776.38 121.01,1669.1 121.01,1641.97ZM1185.78,1641.97L1314.06,1641.97C1314.06,1772.92 1307,2149.57 1304.31,2211.83C1298.6,2290.45 1303.37,2384.1 1296.96,2461.66C1283.71,2461.66 1255.68,2466.09 1244.71,2457.23C1239.34,2444.37 1245.97,2400.12 1241.37,2381.91L1168.67,2381.91L1160.12,2461.66L1104.53,2461.66C1104.53,2407.52 1111.61,2355.88 1116.63,2302.16C1128.96,2170.17 1143.01,2039.35 1158.9,1907.82C1169.46,1825.27 1171.68,1743.1 1185.78,1641.97ZM1224.26,2002.99C1214.74,2039.87 1199.08,2178.5 1198.6,2202.37L1232.81,2202.37C1232.81,2156.23 1232.01,2022.11 1224.26,2002.99ZM1339.72,2461.66C1344.13,2412.12 1394.74,2102.77 1412.07,1996.43C1423.32,1927.39 1435.68,1857.41 1444.81,1788.18C1450.17,1747.48 1451.65,1703.12 1465.79,1664.21C1475.95,1636.24 1504.01,1641.97 1527.87,1641.97C1574.91,1641.97 1647.97,1636.78 1666.27,1695.91C1679.54,1738.79 1677.54,1779.65 1673.99,1823.63C1665.82,1911.06 1644.71,1993.28 1616.8,2076.18C1598.73,2129.86 1582.33,2184.22 1550.23,2231.26C1536.15,2251.87 1519.19,2273.63 1494.69,2279.77C1478.79,2283.74 1453.27,2274.45 1440.59,2287.1C1429.39,2298.27 1423.89,2322.67 1420.96,2337.6C1417.75,2353.98 1398.68,2437.01 1393.53,2461.66L1339.72,2461.66ZM1506.49,1944.33C1502.73,1964.17 1485.11,2055.8 1485.11,2081.68C1497.18,2081.68 1514.69,2084.74 1525.14,2077.25C1535.49,2069.59 1552.01,1999.98 1542.36,1963.33C1537.87,1946.29 1523.59,1942.86 1506.49,1944.33ZM1540.7,2461.66C1549.04,2393.31 1574.91,2332.19 1594.8,2266.71C1630.12,2148.37 1669.65,2030.46 1706.12,1912.31C1711.57,1892.49 1718.44,1874.62 1724.47,1854.65C1739.34,1805.91 1755.11,1757.39 1769.56,1708.43C1775.19,1689.86 1781.2,1657.62 1798.44,1646.52C1815.92,1635.27 1850.09,1641.97 1869.96,1641.97L2041.01,1641.97C2040.29,1673.8 2026.66,1701.74 2014.71,1730.58C1996.04,1775.62 1978.66,1819.39 1958.38,1863.51C1948.16,1886.31 1936.87,1928.91 1915.33,1943.26C1887.76,1955.56 1788.72,1946.33 1778.07,1957.96C1766.65,1970.41 1751.88,2027.62 1750.23,2040.74L1857.13,2040.74C1850.08,2089.48 1788.73,2222.42 1777.39,2233.02C1752.68,2256.11 1704.04,2225.77 1677.27,2243.62C1667.76,2250.16 1657.22,2295.58 1656.15,2306.59L1763.06,2306.59C1757.32,2346.46 1709.17,2452.8 1694.07,2458.99C1679.6,2465.31 1658.72,2461.66 1643.33,2461.66L1540.7,2461.66Z" style="fill:rgb(52,35,0);stroke:black;stroke-opacity:0;stroke-width:20.83px;"/>
                </g>
                <g id="Escape">
                    <path d="M649.176,2230.4C668.305,2230.4 694.118,2226.24 711.676,2234.68C724.176,2241.09 734.268,2258.11 749.155,2259.9C760.601,2261.27 771.28,2250.01 769.76,2238.74C765.843,2211.69 727.526,2201.62 707.51,2191.34C679.335,2176.87 656.397,2152.23 638.843,2126.24C610.718,2084.59 593.443,2039.77 576.76,1992.9C544.493,1902.26 519.622,1806.99 529.051,1709.57C530.318,1697.07 531.793,1680.96 537.835,1669.09C566.943,1611.88 630.789,1638.74 663.205,1676.61C705.789,1726.63 732.16,1789.76 752.905,1851.24C765.843,1890.47 778.226,1926.24 778.343,1967.9C757.01,1967.9 724.176,1974.07 704.697,1965.39C696.006,1961.88 693.577,1949.79 687.366,1942.6C683.286,1937.87 675.869,1937.54 669.968,1935.14C659.559,1930.91 648.676,1936.28 646.58,1947.52C644.051,1961.06 654.651,1974.21 661.676,1984.57C687.893,2017.9 735.018,2023.63 765.676,2052C807.105,2090.34 821.451,2148.62 833.905,2201.24C839.459,2224.7 847.105,2247.83 848.801,2272.07C850.23,2292.9 850.422,2314.24 848.789,2334.57C844.226,2391.29 794.389,2435.6 740.843,2395.32C692.297,2358.81 657.51,2289.71 649.176,2230.4ZM1074.18,2192.9C1074.18,2252.77 1078.34,2317.12 1049.9,2372.07C1025.41,2418.66 970.964,2420.7 938.88,2380.4C928.343,2367.9 919.797,2352.06 911.676,2337.55C877.647,2272.07 862.089,2186.11 851.43,2113.74C842.143,2051.24 833.285,1986.01 832.51,1922.07C831.622,1846.24 825.885,1765.52 851.847,1692.9C868.468,1647.07 907.51,1620.11 956.322,1643.84C999.176,1664.96 1020.01,1720.85 1032.18,1763.74C1056.21,1851.24 1070.01,1931.1 1070.01,2022.07L995.01,2022.07C986.676,1997.89 982.51,1963.74 965.843,1943.52C947.501,1921.33 928.343,1941.85 925.068,1963.74C917.976,2008.59 940.11,2170.96 945.885,2205.4C948.593,2222.07 969.889,2273.95 992.66,2252.77C1006.1,2240.27 1006.16,2210 1007.51,2192.9L1074.18,2192.9ZM145.01,1638.74L390.843,1638.74C414.222,1698.43 433.676,1757.04 454.51,1817.9C463.326,1852.73 479.187,1889.06 486.676,1926.24L361.676,1926.24C368.272,1944.67 391.88,2005.82 404.23,2011.22C422.702,2019.3 495.117,2011.54 506.139,2018.02C522.535,2028 526.151,2051.25 531.93,2067.9C546.739,2110.58 571.835,2155.65 574.176,2201.24L478.343,2201.24C486.676,2218.5 497.764,2253.57 515.843,2261.22C532.368,2267.93 602.54,2260.87 613.518,2268.02C623.426,2274.71 664.189,2373.35 665.843,2409.57L557.51,2409.57C542.422,2409.57 521.747,2413.74 509.134,2402.89C490.843,2388.74 484.476,2358.56 475.089,2338.74C453.343,2294.05 273.776,1935.11 211.676,1797.07C198.022,1765.13 145.01,1664.25 145.01,1638.74ZM1182.51,1638.74L1307.51,1638.74C1307.51,1761.88 1300.63,2116.08 1298.01,2174.62C1292.45,2248.56 1297.09,2336.63 1290.84,2409.57C1277.94,2409.57 1250.62,2413.74 1239.93,2405.4C1234.7,2393.31 1241.16,2351.7 1236.68,2334.57L1165.84,2334.57L1157.51,2409.57L1103.34,2409.57C1103.34,2358.66 1110.25,2310.09 1115.13,2259.57C1127.15,2135.45 1140.84,2012.43 1156.32,1888.74C1166.61,1811.11 1168.78,1733.83 1182.51,1638.74ZM1220.01,1978.24C1210.73,2012.92 1195.47,2143.28 1195.01,2165.74L1228.34,2165.74C1228.34,2122.34 1227.56,1996.22 1220.01,1978.24ZM1332.51,2409.57C1336.81,2362.98 1386.13,2072.07 1403.01,1972.07C1413.97,1907.14 1426.02,1841.34 1434.9,1776.24C1440.13,1737.96 1441.58,1696.24 1455.35,1659.65C1465.25,1633.35 1492.6,1638.74 1515.84,1638.74C1561.68,1638.74 1632.87,1633.85 1650.7,1689.46C1663.63,1729.78 1661.68,1768.21 1658.22,1809.57C1650.26,1891.79 1629.69,1969.1 1602.49,2047.07C1584.88,2097.54 1568.91,2148.66 1537.63,2192.9C1523.91,2212.28 1507.39,2232.75 1483.51,2238.51C1468.02,2242.26 1443.15,2233.52 1430.8,2245.41C1419.88,2255.92 1414.53,2278.86 1411.67,2292.9C1408.54,2308.31 1389.96,2386.39 1384.94,2409.57L1332.51,2409.57ZM1495.01,1923.07C1491.35,1941.73 1474.18,2027.9 1474.18,2052.24C1485.94,2052.24 1503,2055.11 1513.18,2048.07C1523.27,2040.86 1539.37,1975.41 1529.96,1940.94C1525.59,1924.91 1511.68,1921.69 1495.01,1923.07ZM1528.34,2409.57C1536.47,2345.29 1561.68,2287.81 1581.06,2226.24C1615.48,2114.95 1654,2004.07 1689.53,1892.96C1694.84,1874.32 1701.53,1857.51 1707.4,1838.74C1721.9,1792.9 1737.26,1747.27 1751.34,1701.24C1756.83,1683.77 1762.68,1653.45 1779.49,1643.02C1796.52,1632.43 1829.81,1638.74 1849.18,1638.74L2015.84,1638.74C2015.14,1668.67 2001.86,1694.95 1990.22,1722.07C1972.03,1764.42 1955.09,1805.58 1935.33,1847.07C1925.37,1868.51 1914.37,1908.57 1893.38,1922.07C1866.51,1933.63 1770.01,1924.96 1759.63,1935.89C1748.51,1947.6 1734.11,2001.4 1732.51,2013.74L1836.68,2013.74C1829.81,2059.57 1770.03,2184.59 1758.97,2194.56C1734.9,2216.26 1687.5,2187.74 1661.42,2204.52C1652.15,2210.67 1641.88,2253.38 1640.84,2263.74L1745.01,2263.74C1739.42,2301.24 1692.5,2401.24 1677.79,2407.06C1663.68,2413 1643.34,2409.57 1628.34,2409.57L1528.34,2409.57Z" style="fill:rgb(223,173,122);stroke:black;stroke-opacity:0;stroke-width:20.83px;"/>
                </g>
            </g>
            <g id="Fruity" transform="matrix(0.99987,-0.0161478,0.0161478,0.99987,-14.0675,-155.558)">
                <g transform="matrix(0.73643,-0.676514,0.676514,0.73643,-687.522,955.443)">
                    <g transform="matrix(221.778,-37.5063,58.3621,345.1,423.957,1337.99)">
                        <path d="M0.127,-0.7L0.763,-0.7C0.77,-0.7 0.777,-0.697 0.782,-0.692C0.787,-0.687 0.79,-0.68 0.79,-0.673L0.79,-0.521C0.79,-0.514 0.787,-0.507 0.782,-0.502C0.777,-0.497 0.77,-0.494 0.763,-0.494L0.37,-0.494L0.37,-0.43L0.698,-0.43C0.705,-0.43 0.712,-0.427 0.717,-0.422C0.722,-0.417 0.725,-0.41 0.725,-0.403L0.725,-0.252C0.725,-0.245 0.722,-0.238 0.717,-0.233C0.712,-0.228 0.705,-0.225 0.698,-0.225L0.37,-0.225L0.37,-0.027C0.37,-0.02 0.367,-0.013 0.362,-0.008C0.357,-0.003 0.35,-0 0.343,-0L0.127,-0C0.12,-0 0.113,-0.003 0.108,-0.008C0.103,-0.013 0.1,-0.02 0.1,-0.027L0.1,-0.673C0.1,-0.68 0.103,-0.687 0.108,-0.692C0.113,-0.697 0.12,-0.7 0.127,-0.7Z" style="fill-rule:nonzero;"/>
                    </g>
                    <g transform="matrix(221.193,40.8115,-63.5052,344.19,614.296,1284.4)">
                        <path d="M0.822,-0.031C0.823,-0.028 0.824,-0.025 0.824,-0.02C0.824,-0.015 0.822,-0.011 0.818,-0.007C0.813,-0.002 0.808,-0 0.802,-0L0.575,-0C0.555,-0 0.541,-0.008 0.533,-0.025L0.445,-0.223L0.361,-0.223L0.361,-0.027C0.361,-0.02 0.358,-0.013 0.353,-0.008C0.348,-0.003 0.341,-0 0.334,-0L0.118,-0C0.111,-0 0.104,-0.003 0.099,-0.008C0.094,-0.013 0.091,-0.02 0.091,-0.027L0.091,-0.673C0.091,-0.68 0.094,-0.687 0.099,-0.692C0.104,-0.697 0.111,-0.7 0.118,-0.7L0.507,-0.7C0.598,-0.7 0.671,-0.678 0.724,-0.635C0.777,-0.592 0.804,-0.533 0.804,-0.458C0.804,-0.367 0.769,-0.302 0.699,-0.261L0.822,-0.031ZM0.361,-0.514L0.361,-0.408L0.486,-0.408C0.501,-0.408 0.512,-0.413 0.52,-0.423C0.528,-0.432 0.532,-0.444 0.532,-0.459C0.532,-0.474 0.528,-0.487 0.521,-0.498C0.513,-0.508 0.501,-0.514 0.486,-0.514L0.361,-0.514Z" style="fill-rule:nonzero;"/>
                    </g>
                    <g transform="matrix(196.474,109.5,-170.389,305.725,810.253,1301.68)">
                        <path d="M0.692,-0.071C0.626,-0.023 0.537,0.001 0.425,0.001C0.313,0.001 0.224,-0.023 0.159,-0.071C0.093,-0.119 0.06,-0.194 0.06,-0.296L0.06,-0.673C0.06,-0.681 0.063,-0.687 0.068,-0.692C0.073,-0.697 0.08,-0.7 0.087,-0.7L0.296,-0.7C0.303,-0.7 0.31,-0.697 0.315,-0.692C0.32,-0.687 0.323,-0.681 0.323,-0.673L0.323,-0.282C0.323,-0.256 0.332,-0.235 0.35,-0.221C0.369,-0.206 0.394,-0.199 0.425,-0.199C0.456,-0.199 0.481,-0.206 0.5,-0.221C0.518,-0.235 0.527,-0.256 0.527,-0.282L0.527,-0.673C0.527,-0.681 0.53,-0.687 0.535,-0.692C0.54,-0.697 0.547,-0.7 0.554,-0.7L0.763,-0.7C0.77,-0.7 0.777,-0.697 0.782,-0.692C0.787,-0.687 0.79,-0.681 0.79,-0.673L0.79,-0.296C0.79,-0.194 0.757,-0.119 0.692,-0.071Z" style="fill-rule:nonzero;"/>
                    </g>
                    <g transform="matrix(82.4043,209.288,-325.666,128.226,1132.72,1517.8)">
                        <path d="M0.742,-0.495L0.561,-0.495L0.561,-0.205L0.742,-0.205C0.749,-0.205 0.756,-0.202 0.761,-0.197C0.766,-0.192 0.769,-0.185 0.769,-0.178L0.769,-0.027C0.769,-0.02 0.766,-0.013 0.761,-0.008C0.756,-0.003 0.749,-0 0.742,-0L0.108,-0C0.101,-0 0.094,-0.003 0.089,-0.008C0.084,-0.013 0.081,-0.02 0.081,-0.027L0.081,-0.178C0.081,-0.185 0.084,-0.192 0.089,-0.197C0.094,-0.202 0.101,-0.205 0.108,-0.205L0.291,-0.205L0.291,-0.495L0.108,-0.495C0.101,-0.495 0.094,-0.498 0.089,-0.503C0.084,-0.508 0.081,-0.515 0.081,-0.522L0.081,-0.673C0.081,-0.68 0.084,-0.687 0.089,-0.692C0.094,-0.697 0.101,-0.7 0.108,-0.7L0.742,-0.7C0.749,-0.7 0.756,-0.697 0.761,-0.692C0.766,-0.687 0.769,-0.68 0.769,-0.673L0.769,-0.522C0.769,-0.515 0.766,-0.508 0.761,-0.503C0.756,-0.498 0.749,-0.495 0.742,-0.495Z" style="fill-rule:nonzero;"/>
                    </g>
                    <g transform="matrix(8.55511,224.764,-349.747,13.3123,1219.52,1689.15)">
                        <path d="M0.08,-0.7L0.77,-0.7C0.777,-0.7 0.784,-0.697 0.789,-0.692C0.794,-0.687 0.797,-0.68 0.797,-0.673L0.797,-0.512C0.797,-0.505 0.794,-0.498 0.789,-0.493C0.784,-0.488 0.777,-0.485 0.77,-0.485L0.555,-0.485L0.555,-0.027C0.555,-0.02 0.552,-0.013 0.547,-0.008C0.542,-0.003 0.535,-0 0.528,-0L0.322,-0C0.315,-0 0.308,-0.003 0.303,-0.008C0.298,-0.013 0.295,-0.02 0.295,-0.027L0.295,-0.485L0.08,-0.485C0.073,-0.485 0.066,-0.488 0.061,-0.493C0.056,-0.498 0.053,-0.505 0.053,-0.512L0.053,-0.673C0.053,-0.68 0.056,-0.687 0.061,-0.692C0.066,-0.697 0.073,-0.7 0.08,-0.7Z" style="fill-rule:nonzero;"/>
                    </g>
                    <g transform="matrix(-66.1917,214.967,-334.502,-102.998,1244.9,1880.4)">
                        <path d="M0.582,-0.7L0.791,-0.7C0.797,-0.7 0.802,-0.698 0.807,-0.694C0.811,-0.689 0.813,-0.685 0.813,-0.68C0.813,-0.675 0.812,-0.671 0.81,-0.667L0.558,-0.25L0.558,-0.027C0.558,-0.02 0.555,-0.013 0.55,-0.008C0.545,-0.003 0.538,-0 0.531,-0L0.318,-0C0.311,-0 0.304,-0.003 0.299,-0.008C0.294,-0.013 0.291,-0.02 0.291,-0.027L0.291,-0.25L0.04,-0.667C0.038,-0.671 0.037,-0.675 0.037,-0.68C0.037,-0.685 0.039,-0.689 0.043,-0.694C0.048,-0.698 0.053,-0.7 0.059,-0.7L0.27,-0.7C0.289,-0.7 0.302,-0.692 0.311,-0.677L0.424,-0.479L0.54,-0.675C0.55,-0.692 0.564,-0.7 0.582,-0.7Z" style="fill-rule:nonzero;"/>
                    </g>
                </g>
                <g transform="matrix(0.73643,-0.676514,0.676514,0.73643,-687.522,940.443)">
                    <g transform="matrix(221.778,-37.5063,58.3621,345.1,423.957,1337.99)">
                        <path d="M0.127,-0.7L0.763,-0.7C0.77,-0.7 0.777,-0.697 0.782,-0.692C0.787,-0.687 0.79,-0.68 0.79,-0.673L0.79,-0.521C0.79,-0.514 0.787,-0.507 0.782,-0.502C0.777,-0.497 0.77,-0.494 0.763,-0.494L0.37,-0.494L0.37,-0.43L0.698,-0.43C0.705,-0.43 0.712,-0.427 0.717,-0.422C0.722,-0.417 0.725,-0.41 0.725,-0.403L0.725,-0.252C0.725,-0.245 0.722,-0.238 0.717,-0.233C0.712,-0.228 0.705,-0.225 0.698,-0.225L0.37,-0.225L0.37,-0.027C0.37,-0.02 0.367,-0.013 0.362,-0.008C0.357,-0.003 0.35,-0 0.343,-0L0.127,-0C0.12,-0 0.113,-0.003 0.108,-0.008C0.103,-0.013 0.1,-0.02 0.1,-0.027L0.1,-0.673C0.1,-0.68 0.103,-0.687 0.108,-0.692C0.113,-0.697 0.12,-0.7 0.127,-0.7Z" style="fill:rgb(255,26,0);fill-rule:nonzero;"/>
                    </g>
                    <g transform="matrix(221.193,40.8115,-63.5052,344.19,614.296,1284.4)">
                        <path d="M0.822,-0.031C0.823,-0.028 0.824,-0.025 0.824,-0.02C0.824,-0.015 0.822,-0.011 0.818,-0.007C0.813,-0.002 0.808,-0 0.802,-0L0.575,-0C0.555,-0 0.541,-0.008 0.533,-0.025L0.445,-0.223L0.361,-0.223L0.361,-0.027C0.361,-0.02 0.358,-0.013 0.353,-0.008C0.348,-0.003 0.341,-0 0.334,-0L0.118,-0C0.111,-0 0.104,-0.003 0.099,-0.008C0.094,-0.013 0.091,-0.02 0.091,-0.027L0.091,-0.673C0.091,-0.68 0.094,-0.687 0.099,-0.692C0.104,-0.697 0.111,-0.7 0.118,-0.7L0.507,-0.7C0.598,-0.7 0.671,-0.678 0.724,-0.635C0.777,-0.592 0.804,-0.533 0.804,-0.458C0.804,-0.367 0.769,-0.302 0.699,-0.261L0.822,-0.031ZM0.361,-0.514L0.361,-0.408L0.486,-0.408C0.501,-0.408 0.512,-0.413 0.52,-0.423C0.528,-0.432 0.532,-0.444 0.532,-0.459C0.532,-0.474 0.528,-0.487 0.521,-0.498C0.513,-0.508 0.501,-0.514 0.486,-0.514L0.361,-0.514Z" style="fill:rgb(255,26,0);fill-rule:nonzero;"/>
                    </g>
                    <g transform="matrix(196.474,109.5,-170.389,305.725,810.253,1301.68)">
                        <path d="M0.692,-0.071C0.626,-0.023 0.537,0.001 0.425,0.001C0.313,0.001 0.224,-0.023 0.159,-0.071C0.093,-0.119 0.06,-0.194 0.06,-0.296L0.06,-0.673C0.06,-0.681 0.063,-0.687 0.068,-0.692C0.073,-0.697 0.08,-0.7 0.087,-0.7L0.296,-0.7C0.303,-0.7 0.31,-0.697 0.315,-0.692C0.32,-0.687 0.323,-0.681 0.323,-0.673L0.323,-0.282C0.323,-0.256 0.332,-0.235 0.35,-0.221C0.369,-0.206 0.394,-0.199 0.425,-0.199C0.456,-0.199 0.481,-0.206 0.5,-0.221C0.518,-0.235 0.527,-0.256 0.527,-0.282L0.527,-0.673C0.527,-0.681 0.53,-0.687 0.535,-0.692C0.54,-0.697 0.547,-0.7 0.554,-0.7L0.763,-0.7C0.77,-0.7 0.777,-0.697 0.782,-0.692C0.787,-0.687 0.79,-0.681 0.79,-0.673L0.79,-0.296C0.79,-0.194 0.757,-0.119 0.692,-0.071Z" style="fill:rgb(255,26,0);fill-rule:nonzero;"/>
                    </g>
                    <g transform="matrix(82.4043,209.288,-325.666,128.226,1132.72,1517.8)">
                        <path d="M0.742,-0.495L0.561,-0.495L0.561,-0.205L0.742,-0.205C0.749,-0.205 0.756,-0.202 0.761,-0.197C0.766,-0.192 0.769,-0.185 0.769,-0.178L0.769,-0.027C0.769,-0.02 0.766,-0.013 0.761,-0.008C0.756,-0.003 0.749,-0 0.742,-0L0.108,-0C0.101,-0 0.094,-0.003 0.089,-0.008C0.084,-0.013 0.081,-0.02 0.081,-0.027L0.081,-0.178C0.081,-0.185 0.084,-0.192 0.089,-0.197C0.094,-0.202 0.101,-0.205 0.108,-0.205L0.291,-0.205L0.291,-0.495L0.108,-0.495C0.101,-0.495 0.094,-0.498 0.089,-0.503C0.084,-0.508 0.081,-0.515 0.081,-0.522L0.081,-0.673C0.081,-0.68 0.084,-0.687 0.089,-0.692C0.094,-0.697 0.101,-0.7 0.108,-0.7L0.742,-0.7C0.749,-0.7 0.756,-0.697 0.761,-0.692C0.766,-0.687 0.769,-0.68 0.769,-0.673L0.769,-0.522C0.769,-0.515 0.766,-0.508 0.761,-0.503C0.756,-0.498 0.749,-0.495 0.742,-0.495Z" style="fill:rgb(255,26,0);fill-rule:nonzero;"/>
                    </g>
                    <g transform="matrix(8.55511,224.764,-349.747,13.3123,1219.52,1689.15)">
                        <path d="M0.08,-0.7L0.77,-0.7C0.777,-0.7 0.784,-0.697 0.789,-0.692C0.794,-0.687 0.797,-0.68 0.797,-0.673L0.797,-0.512C0.797,-0.505 0.794,-0.498 0.789,-0.493C0.784,-0.488 0.777,-0.485 0.77,-0.485L0.555,-0.485L0.555,-0.027C0.555,-0.02 0.552,-0.013 0.547,-0.008C0.542,-0.003 0.535,-0 0.528,-0L0.322,-0C0.315,-0 0.308,-0.003 0.303,-0.008C0.298,-0.013 0.295,-0.02 0.295,-0.027L0.295,-0.485L0.08,-0.485C0.073,-0.485 0.066,-0.488 0.061,-0.493C0.056,-0.498 0.053,-0.505 0.053,-0.512L0.053,-0.673C0.053,-0.68 0.056,-0.687 0.061,-0.692C0.066,-0.697 0.073,-0.7 0.08,-0.7Z" style="fill:rgb(255,26,0);fill-rule:nonzero;"/>
                    </g>
                    <g transform="matrix(-66.1917,214.967,-334.502,-102.998,1244.9,1880.4)">
                        <path d="M0.582,-0.7L0.791,-0.7C0.797,-0.7 0.802,-0.698 0.807,-0.694C0.811,-0.689 0.813,-0.685 0.813,-0.68C0.813,-0.675 0.812,-0.671 0.81,-0.667L0.558,-0.25L0.558,-0.027C0.558,-0.02 0.555,-0.013 0.55,-0.008C0.545,-0.003 0.538,-0 0.531,-0L0.318,-0C0.311,-0 0.304,-0.003 0.299,-0.008C0.294,-0.013 0.291,-0.02 0.291,-0.027L0.291,-0.25L0.04,-0.667C0.038,-0.671 0.037,-0.675 0.037,-0.68C0.037,-0.685 0.039,-0.689 0.043,-0.694C0.048,-0.698 0.053,-0.7 0.059,-0.7L0.27,-0.7C0.289,-0.7 0.302,-0.692 0.311,-0.677L0.424,-0.479L0.54,-0.675C0.55,-0.692 0.564,-0.7 0.582,-0.7Z" style="fill:rgb(255,26,0);fill-rule:nonzero;"/>
                    </g>
                </g>
            </g>
            <g id="PALO-CESTA" serif:id="PALO CESTA" transform="matrix(1,0,0,1,14.7698,-117.622)">
                <g id="Palo-cesta" serif:id="Palo cesta" transform="matrix(1,0,0,1,-14.7559,15.0595)">
                    <path d="M1083.76,1397.65L1078.87,863.075" style="fill:none;stroke:black;stroke-width:45px;stroke-linecap:square;stroke-miterlimit:1;"/>
                </g>
                <g id="Palo-cesta1" serif:id="Palo cesta" transform="matrix(1,0,0,1,-14.7559,-0.940507)">
                    <path d="M1083.76,1397.65L1078.87,863.075" style="fill:none;stroke:rgb(223,173,122);stroke-width:50px;stroke-linecap:square;stroke-miterlimit:1;"/>
                </g>
            </g>
            <g id="UNION-CESTA" serif:id="UNION CESTA" transform="matrix(1,0,0,1,15.8849,-126.211)">
                <g id="Uni贸n-cesta" serif:id="Uni贸n cesta" transform="matrix(1.26694,0,0,1.07203,-349.512,-74.239)">
                    <ellipse cx="1119.63" cy="1516.04" rx="39.465" ry="46.641" style="fill:none;stroke:rgb(3,2,0);stroke-width:38.35px;stroke-linecap:round;stroke-miterlimit:1;"/>
                </g>
                <g id="Uni贸n-cesta1" serif:id="Uni贸n cesta" transform="matrix(1.26694,0,0,1.07203,-349.512,-82.239)">
                    <ellipse cx="1119.63" cy="1516.04" rx="39.465" ry="46.641" style="fill:none;stroke:rgb(223,173,122);stroke-width:38.35px;stroke-linecap:round;stroke-miterlimit:1;"/>
                </g>
            </g>
            <g id="mantel" transform="matrix(-1.03245,-1.26439e-16,8.41448e-17,-0.687095,2203.14,1891.25)">
                <path d="M138.736,415.664L138.816,515.598L238.682,516.011L238.573,415.341L338.525,414.735L338.653,515.931L438.623,516.019L438.631,415.92L538.531,415.911L538.629,515.994L638.521,515.98L638.521,415.731L738.848,415.972L738.581,515.96L838.678,515.995L838.448,416.012L938.543,416.029L938.844,515.91L1038.68,516.353L1039.07,415.817L1138.78,415.695L1138.62,515.894L1238.71,515.749L1238.66,415.802L1338.79,415.816L1338.28,515.749L1438.67,515.796L1438.72,415.929L1538.6,415.978L1538.6,515.992L1638.71,515.815L1638.77,415.889L1738.64,415.606L1738.73,516.094L1838.67,515.875L1838.7,415.886L1938.53,415.717L1939.25,515.754L2038.39,515.821L2038.76,415.928" style="fill:none;stroke:black;stroke-width:68.42px;stroke-linecap:square;stroke-miterlimit:1;"/>
            </g>
            <g id="mantel1" serif:id="mantel" transform="matrix(-1.03245,-1.26439e-16,8.41448e-17,-0.687095,2203.14,1885.25)">
                <path d="M138.736,415.664L138.816,515.598L238.682,516.011L238.573,415.341L338.525,414.735L338.653,515.931L438.623,516.019L438.631,415.92L538.531,415.911L538.629,515.994L638.521,515.98L638.521,415.731L738.848,415.972L738.581,515.96L838.678,515.995L838.448,416.012L938.543,416.029L938.844,515.91L1038.68,516.353L1039.07,415.817L1138.78,415.695L1138.62,515.894L1238.71,515.749L1238.66,415.802L1338.79,415.816L1338.28,515.749L1438.67,515.796L1438.72,415.929L1538.6,415.978L1538.6,515.992L1638.71,515.815L1638.77,415.889L1738.64,415.606L1738.73,516.094L1838.67,515.875L1838.7,415.886L1938.53,415.717L1939.25,515.754L2038.39,515.821L2038.76,415.928" style="fill:none;stroke:rgb(219,201,179);stroke-width:68.42px;stroke-linecap:square;stroke-miterlimit:1;"/>
            </g>
        </g>
    </g>
</svg>
